<?xml version="1.0" encoding="utf-8"?>
<!-- Generator: Adobe Illustrator 27.5.0, SVG Export Plug-In . SVG Version: 6.00 Build 0)  -->
<svg version="1.1" xmlns="http://www.w3.org/2000/svg" xmlns:xlink="http://www.w3.org/1999/xlink" x="0px" y="0px"
	 viewBox="0 0 500 500" style="enable-background:new 0 0 500 500;" xml:space="preserve">
<g id="BACKGROUND">
	<rect style="fill:#FFFFFF;" width="500" height="500"/>
</g>
<g id="OBJECTS">
	<g>
		<circle style="fill:#BC283A;" cx="249.814" cy="238.923" r="170.672"/>
		<g>
			<path style="fill:#BC283A;" d="M342.655,248.134c0,0,189.856-130.557-168.212-34.738c0,0,91.487-30.717,123.986-38.393
				C476.257,132.998,456.375,243.828,342.655,248.134z"/>
			<path style="fill:#BC283A;" d="M127.379,246.309c0,0-66.772,51.082-20.13,60.548c31.427,6.378,121.231,2.569,291.776-55.641
				c0,0-87.366,57.619-155.431,69.143l67.812-5.31c0,0-176.262,75.638-245.335,16.971C43.101,312.51,55.778,266.147,127.379,246.309
				z"/>
			<path style="fill:#FFFFFF;" d="M342.655,248.134c0,0,61.158-39.773,53.645-61.489c-6.569-18.989-46.176-23.172-163.529,7.712
				c0,0,33.159-11.678,65.659-19.355C476.257,132.998,457.213,223.816,342.655,248.134z"/>
			<g>
				<path style="fill:#323438;" d="M201.726,99.958l2.643,16.296c0,0,16.056,10.658,18.598,17
					c2.542,6.342,27.589,80.068,27.589,80.068l-45.13,5.549c0,0-21.415-40.959-27.355-62.892
					c-5.94-21.933-1.712-50.472-1.712-50.472L201.726,99.958z"/>
				<path style="opacity:0.2;fill:#384168;" d="M201.726,99.958l2.643,16.296c0,0,16.056,10.658,18.598,17
					c2.542,6.342,27.589,80.068,27.589,80.068l-45.13,5.549c0,0-21.415-40.959-27.355-62.892
					c-5.94-21.933-1.712-50.472-1.712-50.472L201.726,99.958z"/>
				<path style="fill:#585A63;" d="M306.158,342.49c0,0,8.236,8.264,3.385,12.16c-8.576,6.893-9.38,15.015-9.38,15.015
					c-0.01,0.009-0.01,0.009-0.01,0.009c-1.125,0.832,0.369,4.983,0.151,7.148c-0.057,0.624-0.255,1.078-0.69,1.248
					c-28.376,11.318-104.663-2.742-104.663-2.742l-2.298-9.191c-3.073-0.766-8.434-8.425-8.434-8.425l3.839-9.191
					c0,0-1.787-13.843-1.021-44.459c0.473-18.467,10.694-51.778,23.09-73.545c4.699-8.245,8.926-15.148,11.659-19.535
					c0.756-1.22,1.399-2.241,1.91-3.045c0.86-1.333,1.343-2.071,1.343-2.071c-24.509-14.174-28.187-64.439-28.187-64.439
					s4.056-2.099,10.656-7.631c1.626-1.343,3.508-2.77,5.276-4.68c21.105-22.769,43.788-18.693,43.788-18.693
					c3.839,0.841,7.167,2.581,10.061,4.974c0.009,0.009,0.019,0.009,0.038,0.038c18.174,14.996,19.204,55.352,20.528,57.007
					c0.047,0.057,0.104,0.123,0.17,0.208c0,0.009,0.019,0.009,0.019,0.009c2.033,2.477,12.065,13.985,12.065,15.479
					c0,1.532-4.983,8.037-4.983,8.037s19.526,24.499,24.121,47.088C323.177,265.844,306.158,342.49,306.158,342.49z"/>
				<path style="opacity:0.3;fill:#384168;" d="M273.352,161.564l9.112,2.262c-7.608-11.771-31.908-18.754-19.818-30.031
					c5.914-5.517,3.987-18.397,3.987-18.397c0.012,0.011,0.023,0.011,0.034,0.034c18.18,14.998,19.213,55.354,20.534,57.007
					c0.046,0.057,0.103,0.126,0.172,0.207C279.667,168.592,273.352,161.564,273.352,161.564z"/>
				<path style="opacity:0.4;fill:#384168;" d="M221.696,142.007l-22.623,0.766c0,0,5.442,30.816,8.313,37.323
					c2.871,6.508,10.883,24.691,24.199,30.433c13.316,5.742,44.943-6.125,44.943-6.125S229.999,138.967,221.696,142.007z"/>
				<path style="fill:#909299;" d="M221.454,278.473c-18.662,33.694-22.383,76.944-22.383,76.944
					c-1.746,3.216-4.123,4.536-6.81,4.881c-1.447,0.746-0.574,3.262,0.39,5.845c-3.066-0.769-8.429-8.429-8.429-8.429l3.836-9.187
					c-0.459-24.875,7.821-47.958,14.482-62.382c0.012-0.011,0.012-0.011,0.012-0.011c4.41-9.543,8.108-15.308,8.108-15.308
					L221.454,278.473z"/>
				<path style="opacity:0.3;fill:#384168;" d="M300.305,376.823l-0.69,1.248c-28.376,11.318-104.663-2.742-104.663-2.742
					l-2.298-9.191c-3.073-0.766-8.434-8.425-8.434-8.425l3.839-9.191c0,0,7.073-50.331,20.093-62.387h-5.598c0,0,0,0-0.019,0.009
					c-6.657,14.42-14.94,37.51-14.476,62.378c0,0-1.787-13.843-1.021-44.459c0.473-18.467,10.694-51.778,23.09-73.545
					c12.869,19.838,18.06,55.617,18.06,55.617s28.281,25.794,30.494,36.943c0.293,1.466-17.909-8.595-18.06-7.035
					c-1.343,13.588-21.511,20.15-13.238,26.154c17.19,12.472,75.161,2.544,76.637,2.298c-1.296,0.577-48.563,21.596-66.226,15.734
					c-17.408-5.787,9.02,18.41,62.359,9.446C299.028,370.506,300.522,374.657,300.305,376.823z"/>
				<path style="fill:#323438;" d="M268.229,180.582c-0.758,11.163-4.731,28.779-22.291,28.504c-0.379,0-0.781-0.011-1.171-0.034
					c-3.319,0.746-6.236,0.459-8.808-0.505c-7.338-2.722-11.967-10.933-15.366-16.445c-3.916-6.351-5.685-22.199-6.925-25.885
					c-1.837-5.455-1.378-10.588-0.379-14.504v-0.023c1.114-4.364,2.906-7.189,2.906-7.189c11.484,0,33.258,8.28,41.883,15.561
					c3.273,2.756,6.144,5.811,8.556,9.199c0.574,0.781,1.102,1.585,1.619,2.412C268.252,171.67,268.585,175.437,268.229,180.582z"/>
				<path style="opacity:0.2;fill:#384168;" d="M268.229,180.582c-0.758,11.163-4.731,28.779-22.291,28.504
					c5.781-8.921,11.021-20.947,5.536-23.248c-5.235-2.196-12.507-4.9-12.507-4.9c4.215,0.138,14.826-2.331,14.826-2.331
					s-32.041-13.953-25.552-12.208c6.5,1.757,12.397-1.571,9.555-4.869c-7.298-8.47-24.507-9.819-24.507-9.819v-0.023
					c1.114-4.364,2.906-7.189,2.906-7.189c11.484,0,33.258,8.28,41.883,15.561c3.273,2.756,6.144,5.811,8.556,9.199
					c0.574,0.781,1.102,1.585,1.619,2.412C268.252,171.67,268.585,175.437,268.229,180.582z"/>
				<g>
					<path style="fill:#E5B7AC;" d="M266.633,171.073c-0.287,0.379-0.597,0.758-0.953,1.125c-1.573,1.642-3.801,3.112-6.454,4.352
						c-4.054,1.906-9.096,3.273-14.229,3.939c-1.55,0.207-3.112,0.333-4.663,0.402c-1.436,0.069-2.848,0.069-4.238,0
						c-0.838-0.046-1.642-0.092-2.412-0.138c-1.355-0.103-2.595-0.218-3.732-0.356c-5.099-0.597-8.005-1.585-9.922-2.768
						c-1.229-0.746-2.044-1.573-2.756-2.412c-0.126-1.631-2.09-9.084-2.033-13.689c2.159,1.309,4.341,2.331,6.5,3.112
						c0.012,0,0.012,0.012,0.012,0.012c5.903,2.147,11.622,2.572,16.043,2.48c1.642-0.046,4.421-0.54,7.534-1.309
						c0.953-0.23,1.929-0.494,2.929-0.769c0.046-0.011,0.103-0.023,0.149-0.035c3.491-0.988,7.086-2.216,9.854-3.457
						c1.102-0.482,2.079-0.988,2.859-1.47C264.393,162.85,264.221,167.685,266.633,171.073z"/>
					<path style="opacity:0.5;fill:#CA7E86;" d="M265.68,172.198c-1.573,1.642-3.801,3.112-6.454,4.352
						c-0.207-1.792-0.816-3.606-2.527-2.607c-3.089,1.803-6.971,1.011-8.751,0.896c-1.792-0.115-3.579,1.385-3.717,2.143
						c-0.08,0.413,0.145,2.095,0.766,3.507c-1.55,0.207-3.112,0.333-4.663,0.402c-0.586-4.674,0.603-7.724,0.603-7.724
						c0.641,1.795,1.092,2.088,2.338,2.046c0,0,4.743-4.428,6.603-6.081c1.86-1.642,4.95-1.86,5.455-2.147
						c0.505-0.287-0.218-2.653-1.079-3.02c-0.505-0.207-3.468,0.459-5.846,1.057c3.491-0.988,7.086-2.216,9.854-3.457
						C261.924,163.229,264.416,168.707,265.68,172.198z"/>
					<path style="opacity:0.5;fill:#CA7E86;" d="M233.656,172.928c0.531,2.246,0.14,4.929-0.502,7.73
						c-1.355-0.103-0.432,0.054-1.569-0.084c0.781-1.619,1.176-3.48,0.995-4.115c-0.431-1.504-5.027-1.86-5.027-1.86
						s-5.949-0.896-7.671-1.677c-1.034-0.459-0.471,2.366,0.149,4.708c-1.229-0.746-2.044-1.573-2.756-2.412
						c-0.126-1.631-2.09-9.084-2.033-13.689c2.159,1.309,4.341,2.331,6.5,3.112c0.012,0,0.012,0.012,0.012,0.012l-4.777-1.539
						c0,0-0.77,3.939,0,4.008c0.758,0.069,5.558-0.149,6.132,0c0.574,0.149,9.884,8.091,9.884,8.091
						S232.714,174.512,233.656,172.928z"/>
					<g>
						<path style="fill:#FFFFFF;" d="M218.96,171.206c0,0,3.75-1.069,5.743-0.662c1.33,0.272,6.881,3.779,6.881,3.779
							s-4.809,1.177-7.242,0.316C221.911,173.778,218.96,171.206,218.96,171.206z"/>
						<path style="fill:#434244;" d="M216.97,167.122c0,0,3.679,0.244,6.562,1.154c2.883,0.909,9.459,6.938,9.459,6.938
							s0.901-1.771,0.901-3.015c0,0-0.991,1.101-1.261,1.101c0,0-5.97-6.15-8.493-6.725
							C221.616,166.001,216.97,167.122,216.97,167.122z"/>
					</g>
					<g>
						<path style="fill:#FFFFFF;" d="M258.18,171.206c0,0-3.984-1.069-6.101-0.662c-1.413,0.272-7.31,3.779-7.31,3.779
							s5.109,1.177,7.693,0.316C255.045,173.778,258.18,171.206,258.18,171.206z"/>
						<path style="fill:#434244;" d="M261.122,167.055c0,0-4.737,0.311-7.8,1.22c-3.062,0.909-10.048,6.938-10.048,6.938
							s-0.957-1.771-0.957-3.015c0,0,1.053,1.101,1.34,1.101c0,0,6.343-6.15,9.022-6.725
							C255.359,166.001,261.122,167.055,261.122,167.055z"/>
					</g>
				</g>
				<path style="fill:#909299;" d="M274.511,191.63c-0.333,2.435-0.689,4.869-1.022,7.178c-1.056,7.292-1.987,13.253-1.987,13.253
					l-15.504-2.676c0,0,0.884-1.631,2.079-4.318c0.459-1.022,0.965-2.216,1.47-3.526c0.701-1.803,1.424-3.847,2.078-6.041
					c2.549-8.475,4.077-19.167-0.505-27.08c-5.547-9.589-27.619-16.997-43.341-21.188c-9.394-2.515-16.514-3.882-16.514-3.882
					s2.676,22.199,8.223,37.209c5.558,15.021,20.098,27.709,20.098,27.709c0.207,1.619-0.299,0.76-0.736,1.587
					c-1.16,2.228-4.238,1.964-7.063,1.126c0.758-1.217,1.401-2.239,1.906-3.043c0.861-1.332,0,0,0,0
					c-24.507-14.171-26.838-66.505-26.838-66.505s4.054-2.102,10.657-7.637c2.894,0.482,6.581,1.137,10.646,1.941
					c11.013,2.159,27.08,6.73,34.763,10.646c14.263,7.269,22.991,22.612,23.566,26.322
					C276.75,174.415,275.705,182.947,274.511,191.63z"/>
				<path style="opacity:0.3;fill:#384168;" d="M261.12,204.4l-3.043,0.666c0.459-1.022,0.965-2.216,1.47-3.526
					c0.701-1.803,1.424-3.847,2.078-6.041c2.549-8.475,4.077-19.167-0.505-27.08c-5.547-9.589-27.619-16.997-43.341-21.188
					c-9.394-2.515-16.514-3.882-16.514-3.882s2.676,22.199,8.223,37.209c5.558,15.021,20.085,28.105,20.085,28.105
					c0.206,1.619-0.286,0.364-0.723,1.191c-1.16,2.228-4.238,1.964-7.063,1.126c0.758-1.217,1.401-2.239,1.906-3.043
					c0.861-1.332,0,0,0,0c-24.507-14.171-26.838-66.505-26.838-66.505s42.032,4.467,61.406,20.132
					C277.635,177.228,261.12,204.4,261.12,204.4z"/>
				<path style="opacity:0.3;fill:#384168;" d="M299.454,188.138c0,1.527-4.984,8.039-4.984,8.039s-10.141,0.919-20.982,2.63
					c-4.789,0.758-9.704,1.665-13.942,2.733c7.631-7.534,14.964-9.911,23.778-6.701C289.422,197.06,291.025,194.271,299.454,188.138
					z"/>
				<path style="fill:#323438;" d="M222.967,211.118l-19.684,61.327c0,0-1.698,0-4.605-0.272
					c-12.074-1.121-44.931-6.913-62.264-36.831c-8.492-14.654,2.265-60.696,3.353-63.418c1.089-2.722-0.359-9.526-2.265-14.97
					c-1.905-5.444,9.613-34.654,9.613-34.654l21.622-1.078l14.763-0.74c0,0,0.152,1.143,0.381,3.081
					c1.078,8.895,4.006,34.545,2.885,42.373c-1.361,9.526-3.135,25.857-3.135,25.857s2.46,1.263,2.951,3.266
					c0.022,0.087,0.043,0.185,0.054,0.272c0.131,0.925-1.208,3.887-1.503,4.507c-0.033,0.076-0.054,0.12-0.054,0.12l5.063,1.492
					L222.967,211.118z"/>
				<path style="opacity:0.2;fill:#384168;" d="M183.631,191.794l-33.881,19.23c0,0,13.972-15.329,14.698-16.054
					s13.622-3.175,13.622-3.175s5.749-7.88,7.01-15.318C186.341,169.037,183.631,191.794,183.631,191.794z"/>
				<path style="opacity:0.2;fill:#384168;" d="M190.142,201.451c-5.759,2.406-14.807,8.013-15.242,8.22
					c3.277-4.235,6.543-12.117,11.682-14.611c0.022,0.087,0.043,0.185,0.054,0.272c0.131,0.925-1.208,3.887-1.503,4.507
					c-0.033,0.076-0.054,0.12-0.054,0.12L190.142,201.451z"/>
				<path style="opacity:0.2;fill:#384168;" d="M198.677,272.174c-12.074-1.121-44.931-6.913-62.264-36.831
					c-8.492-14.654,2.265-60.696,3.353-63.418c1.089-2.722-0.359-9.526-2.265-14.97c-1.905-5.444,9.613-34.654,9.613-34.654
					l21.622-1.078c8.753,0.86,15.144,2.341,15.144,2.341s-29.777,3.364-32.411,4.453c-2.624,1.089-10.974,25.4-10.974,25.4
					s26.347-2.363,34.404,11.159c0,0-31.339,0.362-28.797,5.988c11.813,26.135-15.406,47.446-11.595,49.994
					c3.734,2.482,50.865,0.109,52.868,0.011c-1.285,0.283-22.036,4.779-26.761,7.24c-4.877,2.548-6.369,20.305-6.369,20.305
					l30.321-3.919c0,0,1.328-27.011,13.805-32.803C209.652,206.154,200.517,261.602,198.677,272.174z"/>
				<path style="fill:#909299;" d="M308.735,258.254c-2.413,38.179-50.164,65.621-53.591,67.54
					c-0.063,0.036-0.108,0.063-0.144,0.081c-0.036,0.018-0.054,0.027-0.054,0.027s-8.424-6.62-17.502-17.654
					c-0.511-0.61-1.023-1.238-1.525-1.875c-7.499-9.446-15.152-21.79-18.677-35.811c-0.152-0.61-0.296-1.22-0.431-1.83
					c-2.099-9.383-2.296-19.493,0.664-29.953c0.171-0.619,0.359-1.238,0.556-1.857c2.655-8.361,7.347-16.937,14.721-25.549
					c0,0,26.643-14.479,37.255-13.277c0.027,0,0.036,0.009,0.063,0.009c0.153,0.018,0.278,0.045,0.377,0.054
					c0.009,0,0.009,0,0.018,0c0.224,0.036,0.341,0.063,0.341,0.063C280.809,200.312,311.238,218.648,308.735,258.254z"/>
				<path style="opacity:0.3;fill:#384168;" d="M270.448,198.159c-3.606,0.706-6.45,4.997-6.45,4.997l-13.896,111.748l5.042,10.891
					l0.135,0.296c0,0-0.099-0.072-0.278-0.215c-1.525-1.247-9.276-7.688-17.556-17.628c-0.511-0.61-1.023-1.238-1.525-1.875
					c-7.697-9.572-15.546-22.032-19.063-36.035c-0.018-0.538-0.036-1.076-0.045-1.606c-0.305-10.971-0.108-21.045,0.664-29.953
					c0.171-0.619,0.359-1.238,0.556-1.857c2.655-8.361,7.347-16.937,14.721-25.549c0,0,26.643-14.479,37.255-13.277
					c0.027,0,0.036,0.009,0.063,0.009C270.224,198.124,270.349,198.15,270.448,198.159z"/>
				<path style="fill:#323438;" d="M234.814,212.49c0,0,23.447-11.197,32.634-9.283c9.187,1.914,37.132,18.757,34.835,55.124
					c-2.297,36.367-51.607,57.038-51.607,57.038S189.165,265.795,234.814,212.49z"/>
				<path style="fill:#585A63;" d="M260.568,289.503c-2.33-0.524-4.713-1.002-7.133-1.436h-0.018
					c-17.373-3.106-36.38-3.856-47.496-4.018c-5.941-0.072-9.626,0.009-9.626,0.009s-4.93-14.953-6.122-32.543v-0.009
					c-1.147-16.958,1.201-36.371,14.827-47.189c0,0,3.44,0.858,8.578,1.806c10.149,1.869,26.926,4.072,36.976,0.641
					c3.792-1.3,8.163-1.463,12.705-0.668c13.581,2.33,28.687,13.102,34.376,27.152C307.613,257.936,286.592,295.409,260.568,289.503
					z"/>
				<path style="fill:#909299;" d="M199.546,243.533c0.461,16.145,4.136,28.669,6.375,40.516c-5.941-0.072-9.626,0.009-9.626,0.009
					s-4.93-14.953-6.122-32.543v-0.009c-1.147-16.958,1.201-36.371,14.827-47.189c0,0,3.44,0.858,8.578,1.806
					c-4.027,4.289-13.933,16.696-14.077,33.084C199.492,240.68,199.501,242.116,199.546,243.533z"/>
				<path style="opacity:0.3;fill:#384168;" d="M297.631,233.252c-5.683-14.055-20.795-24.823-34.371-27.153
					c1.089,0.719,21.642,12.789,24.113,40.209c1.735,19.255-18.144,21.607-21.652,20.795c-25.508-5.907-45.098-4.544-45.098-4.544
					s22.482,1.992,28.726,9.885c0.942,1.192-32.568,7.326-40.018,4.542c-3.144-1.175-9.785-33.455-9.785-33.455
					s0.154,21.942-3.251,20.813c-2.826-0.939-5.346-9.806-6.122-12.831c1.192,17.59,6.122,32.543,6.122,32.543s0.006,0,0.007,0
					c-0.003,0.001-0.006,0.003-0.009,0.004c0,0,3.691-0.087,9.624-0.011c0.361,0.005,0.732,0.011,1.109,0.017
					c0.094,0.002,0.187,0.003,0.282,0.005c0.333,0.006,0.671,0.012,1.017,0.019c11.32,0.234,28.911,1.082,45.092,3.975
					c-0.004-0.001-0.014-0.004-0.019-0.005c2.431,0.434,4.831,0.913,7.173,1.444C286.591,295.407,307.615,257.933,297.631,233.252z"
					/>
				<path style="fill:#323438;" d="M300.801,382.289c-0.506,2.313-0.552,6.208-0.44,9.757c0.122,4.223,0.44,7.95,0.44,7.95
					s-23.476,6.424-57.767,5.253c-3.736-0.131-7.266-0.337-10.6-0.627c-27.399-2.341-41.67-9.299-41.67-9.299
					s0.337-1.358,0.749-3.277c0.028-0.122,0.056-0.243,0.075-0.365c0.028-0.159,0.066-0.328,0.103-0.496
					c0.178-0.833,0.356-1.751,0.524-2.678c0.038-0.187,0.075-0.375,0.103-0.562c0.103-0.552,0.197-1.114,0.281-1.676
					c0.028-0.187,0.056-0.365,0.084-0.552c0.028-0.178,0.047-0.356,0.075-0.534c0.037-0.29,0.075-0.581,0.112-0.862
					c0.169-1.461,0.225-2.734,0.094-3.521c-0.009-0.075-0.028-0.159-0.037-0.243c-0.037-0.14-0.066-0.29-0.103-0.44
					c-0.066-0.272-0.141-0.571-0.225-0.89c-0.084-0.3-0.178-0.627-0.281-0.974c-0.037-0.122-0.075-0.253-0.112-0.384
					c-0.066-0.225-0.14-0.449-0.215-0.674c-0.262-0.852-0.562-1.751-0.88-2.659c-0.094-0.281-0.197-0.571-0.29-0.861
					c-0.487-1.386-0.974-2.725-1.367-3.802c-0.524-1.414-0.889-2.369-0.889-2.369l1.91-2.631c0,0,0.009,0,0.019,0.009
					c0.412,0.131,7.697,2.444,18.85,4.991c9.654,2.191,22.212,4.551,35.705,5.796c18.166,1.676,35.274-2.407,45.743-5.796
					c5.759-1.863,9.514-3.512,10.338-3.886c0.122-0.056,0.178-0.084,0.178-0.084l1.264,1.395l2.332,2.575l0.487,0.543
					C305.39,370.415,301.897,377.223,300.801,382.289z"/>
				<path style="opacity:0.2;fill:#384168;" d="M302.571,367.297c-0.843,0.665-2.032,1.545-3.54,2.556
					c-0.009,0.009-0.019,0.019-0.028,0.019c-6.789,4.56-20.03,11.649-37.746,12.548c-4.504,0.234-9.298,0.066-14.346-0.646
					c-1.807-0.253-3.643-0.571-5.506-0.974c-34.216-7.304-39.385-9.42-40.059-9.748c0.599,0.459,4.663,3.493,10.291,6.929
					c6.583,4.017,15.301,8.578,23.139,10.244c5.019,1.068,5.562,2.453,4.036,3.821c-3.062,2.781-14.486,5.515-14.486,5.515
					s2.397,3.587,8.109,7.061c-27.399-2.341-41.67-9.299-41.67-9.299s0.337-1.358,0.749-3.277c0.768-3.596,1.807-9.13,1.451-11.246
					c-0.384-2.247-2.341-7.744-3.512-10.928c-0.524-1.414-0.889-2.369-0.889-2.369l1.91-2.631c0,0,0.009,0,0.019,0.009
					c0.412,0.131,7.697,2.444,18.85,4.991c9.654,2.191,22.212,4.551,35.705,5.796c15.526,1.433,30.274-1.339,40.771-4.289
					c1.789-0.506,3.455-1.011,4.972-1.508c6.555-2.116,10.516-3.97,10.516-3.97L302.571,367.297z"/>
				<path style="opacity:0.7;fill:#384168;" d="M300.801,382.289c-0.506,2.313-0.552,6.208-0.44,9.757H191.514
					c0.028-0.122,0.056-0.243,0.075-0.365c0.037-0.159,0.075-0.328,0.103-0.496c0.178-0.833,0.356-1.751,0.524-2.678
					c0.038-0.187,0.075-0.375,0.103-0.562c0.103-0.552,0.197-1.114,0.281-1.676c0.028-0.187,0.056-0.365,0.084-0.552
					c0.028-0.178,0.047-0.356,0.075-0.534c0.037-0.29,0.075-0.581,0.112-0.862c0.169-1.461,0.225-2.734,0.094-3.521
					c-0.009-0.075-0.028-0.159-0.037-0.243c-0.037-0.14-0.066-0.29-0.103-0.44c-0.066-0.272-0.141-0.571-0.225-0.89
					c-0.084-0.309-0.178-0.627-0.281-0.974c-0.037-0.122-0.075-0.253-0.112-0.384c-0.075-0.215-0.14-0.449-0.215-0.674
					c-0.262-0.852-0.562-1.751-0.88-2.659c-0.094-0.281-0.197-0.571-0.29-0.861c-0.487-1.386-0.974-2.725-1.367-3.802h115.449
					l0.487,0.543C305.39,370.415,301.897,377.223,300.801,382.289z"/>
				<path style="fill:#D6A59A;" d="M163.356,87.293c-4.214,1.227-10.375-2.8-10.375-2.8s-0.009,0-0.037,0.009
					c-0.29,0.037-2.098,0.206-5.469-0.955c-3.399-1.18-4.335-4.719-4.335-4.719l-1.077-4.635l0.028-2.641l1.863,0.468l26.116,6.546
					C170.07,78.566,174.181,84.138,163.356,87.293z"/>
				<path style="opacity:0.5;fill:#CA7E86;" d="M163.356,87.293c-4.214,1.227-10.375-2.8-10.375-2.8s-0.009,0-0.037,0.009
					c-0.29,0.037-2.098,0.206-5.469-0.955c-3.399-1.18-4.335-4.719-4.335-4.719l-1.077-4.635l0.028-2.641l1.863,0.468l26.116,6.546
					C170.07,78.566,174.181,84.138,163.356,87.293z"/>
				<g>
					<path style="fill:#323438;" d="M192.309,86.101l-6.435,11.366l-49.852-28.209l-25.432-14.382l-1.982-1.121
						c-1.862-1.056-2.526-3.429-1.47-5.302l2.58-4.551c0.011-0.011,0.011-0.022,0.011-0.033c0.011-0.011,0.011-0.011,0.011-0.011
						c1.056-1.873,3.429-2.526,5.302-1.47l1.84,1.034L192.309,86.101z"/>
					
						<rect x="132.189" y="57.663" transform="matrix(0.9489 -0.3156 0.3156 0.9489 -12.0557 45.5145)" style="fill:#ABABAB;" width="4.638" height="4.638"/>
					<path style="fill:#ABABAB;" d="M116.882,43.423l-1.535,2.787l-1.274,2.33l-3.484,6.336l-1.982-1.121
						c-1.862-1.056-2.526-3.429-1.47-5.302l1.698-2.994l0.904-1.6c0.131-0.239,0.294-0.457,0.479-0.653
						c1.176-1.361,3.19-1.742,4.823-0.817L116.882,43.423z"/>
					<path style="fill:#C3C3C7;" d="M115.347,46.21l-1.274,2.33l-5.237-3.081l0.904-1.6c0.131-0.239,0.294-0.457,0.479-0.653
						L115.347,46.21z"/>
					<path style="opacity:0.2;fill:#384168;" d="M136.414,65.306l-0.392,3.952l-25.432-14.382l-1.982-1.121
						c-1.862-1.056-2.526-3.429-1.47-5.302l2.58-4.551c-0.185,0.512-1.698,4.975,2.656,7.719
						C117.002,54.528,136.414,65.306,136.414,65.306z"/>
					
						<rect x="117.601" y="50.286" transform="matrix(0.9489 -0.3156 0.3156 0.9489 -10.4733 40.5337)" style="fill:#ABABAB;" width="4.638" height="4.638"/>
					
						<rect x="124.849" y="54.023" transform="matrix(0.9489 -0.3156 0.3156 0.9489 -11.2821 43.0118)" style="fill:#ABABAB;" width="4.638" height="4.638"/>
					<path style="fill:#E5B7AC;" d="M174.548,67.24c0,0-0.051,5.171-3.934,5.559c-3.882,0.398-6.426-2.097-6.426-2.097l-3.372,2.828
						l-1.158,0.98c0,0-0.267,3.547-1.25,5.842c-0.408,0.93-0.921,1.657-1.591,1.874c-1.208,0.387-2.125,0.371-2.797,0.195
						c-1.285-0.341-1.725-1.286-1.725-1.286s0.093,1.591-3.061,1.764c-3.145,0.172-4.394-3.233-4.394-3.233
						c-3.882,0.398-4.285-3.602-4.285-3.602c-2.606-0.146-3.077-2.798-3.077-2.798s-0.056-8.718,0.629-10.963
						c0.687-2.236,9.088-9.848,11.178-9.889c2.083-0.021,3.537,1.204,3.537,1.204s2.617-1.371,4.44-0.978
						c1.919,0.414,2.032,1.919,2.032,1.919s2.166-1.141,4.934,0.222c2.756,1.346,2.77,5.229,2.77,5.229s2.819-0.62,5.703,1.908
						C174.604,63.592,174.331,67.091,174.548,67.24z"/>
					<path style="opacity:0.5;fill:#CA7E86;" d="M172.7,61.917l-0.01,0.001c0,0-1.268,6.043-4.293,7.34c0,0-2.654-1.655-3.762-1.337
						c-0.764,0.219-4.951,2.46-5.986,4.71c-3.489-0.575-6.213,2.935-5.378,4.153c2.114,3.083,0.749,5.635,0.749,5.635
						c0.673,0.176,1.589,0.192,2.797-0.195c0.67-0.217,1.183-0.944,1.591-1.874c0.984-2.295,1.25-5.842,1.25-5.842l4.53-3.808
						c0,0,2.545,2.495,6.426,2.097c3.883-0.388,3.934-5.559,3.934-5.559C174.331,67.091,174.561,63.638,172.7,61.917z"/>
					<path style="opacity:0.5;fill:#CA7E86;" d="M151.993,80.757c0,0-0.942-9.905-0.825-10.412c0.117-0.507,6.484-6.753,8.901-7.822
						c2.98-1.318,5.098-1.108,5.098-1.108s-4.41,1.808-4.958,2.161c-0.548,0.353-6.91,5.686-7.41,7.474
						C152.298,72.839,151.993,80.757,151.993,80.757z"/>
					<path style="opacity:0.5;fill:#CA7E86;" d="M145.22,78.829c0,0-0.942-9.904-0.825-10.412c0.117-0.507,5.856-7.776,8.273-8.845
						c2.98-1.318,4.592-1.552,4.592-1.552s-3.904,2.253-4.452,2.606c-0.548,0.353-6.282,6.709-6.782,8.497
						C145.525,70.91,145.22,78.829,145.22,78.829z"/>
					<path style="opacity:0.5;fill:#CA7E86;" d="M140.679,75.19c0,0-0.91-9.01-0.83-9.468c0.08-0.459,4.354-6.949,6.191-7.874
						c2.266-1.14,5.376-2.29,5.376-2.29s-4.835,2.939-5.249,3.249s-4.701,5.973-5.052,7.586
						C140.764,68.007,140.679,75.19,140.679,75.19z"/>
					<path style="fill:#E5B7AC;" d="M199.113,78.567c-1.633,4.943-8.579,10.669-8.579,10.669s-3.636,10.691-5.324,13.925
						c-0.272,0.523-0.501,0.849-0.642,0.904c-1.067,0.359-25.128-8.938-23.386-16.875c0.098-0.457,2.363-12.433,3.81-13.609
						c1.448-1.187,7.621-5.988,7.621-5.988s2.994-1.633,4.54,1.361c0,0,3.353-1.905,5.258-1.089
						c1.905,0.817,1.818,3.168,1.818,3.168s2.177-1.176,3.985-0.719c1.818,0.446,2.275,4.083,2.275,4.083s3.441-2.635,4.529-3.636
						c0.849-0.773,3.832,1.383,4.355,4.692C199.527,76.411,199.483,77.456,199.113,78.567z"/>
					<path style="opacity:0.5;fill:#CA7E86;" d="M199.113,78.567c-1.633,4.943-8.579,10.669-8.579,10.669
						s-3.636,10.691-5.324,13.925c-0.055-0.457-0.098-0.936-0.131-1.415c-1.274-16.821,8.089-23.581,11.355-24.67
						c2.09-0.697,2.744-1.285,2.94-1.622C199.527,76.411,199.483,77.456,199.113,78.567z"/>
					<path style="fill:#ABABAB;" d="M209.195,93.352c-0.414,2.21-1.002,4.42-1.851,6.26c-4.213,9.123-9.842,16.004-15.264,13.5
						c-0.621-0.294-3.375-2.177-3.876-2.635c-3.898-3.538-4.235-11.856-0.512-19.934c0.457-0.98,0.947-1.916,1.48-2.809
						c1.383-2.33,2.994-4.322,4.714-5.879c1.034-0.958,2.112-1.742,3.19-2.352c2.809-1.611,5.672-2.036,8.057-0.936
						c1.503,0.686,5.019,3.277,5.019,3.277S210.272,87.647,209.195,93.352z"/>
					<path style="fill:#C3C3C7;" d="M207.442,86.188l-2.014,3.114l-11.54-7.447c1.034-0.958,2.112-1.742,3.19-2.352L207.442,86.188z
						"/>
					<path style="opacity:0.2;fill:#384168;" d="M209.195,93.352c-0.414,2.21-1.002,4.42-1.851,6.26
						c-4.213,9.123-9.842,16.004-15.264,13.5c-0.621-0.294-3.375-2.177-3.876-2.635c-3.898-3.538-4.235-11.856-0.512-19.934
						c0.457-0.98,0.947-1.916,1.48-2.809c0,0-0.534,2.951,4.584,0.838C195.792,87.734,202.205,90.14,209.195,93.352z"/>
					
						<ellipse transform="matrix(0.419 -0.908 0.908 0.419 28.3377 239.2304)" style="fill:#585A63;" cx="201.106" cy="97.472" rx="18.189" ry="10.82"/>
					<path style="opacity:0.2;fill:#384168;" d="M209.809,101.489c-3.377,7.317-9.642,11.62-13.994,9.612
						c-4.352-2.009-5.143-9.568-1.766-16.885c3.377-7.317,9.642-11.62,13.994-9.612C212.396,86.612,213.186,94.172,209.809,101.489z
						"/>
					<path style="fill:#D6D6D8;" d="M440.427,238.923l-10.691-6.064l-22.259-12.611L199.461,102.301
						c0-1.666,0.359-3.212,1.078-4.518c0.708-1.296,1.785-2.352,3.212-3.07l220.781,125.223c1.165,0.653,2.275,1.405,3.321,2.254
						c2.166,1.698,4.061,3.756,5.585,6.086L440.427,238.923z"/>
					<path style="opacity:0.4;fill:#384168;" d="M431.056,233.649L199.461,102.301c0-1.666,0.359-3.212,1.078-4.518l219.739,124.663
						c3.593,2.036,6.641,4.899,8.906,8.34L431.056,233.649z"/>
				</g>
				<path style="fill:#E5B7AC;" d="M165.445,78.941c-0.122-0.211-4.051-5.2-7.649-5.132c-3.598,0.068-4.538,2.242-4.523,2.978
					c0.016,0.736,4.743,8.551,7.177,9.293C162.886,86.822,167.785,82.975,165.445,78.941z"/>
				<path style="fill:#323438;" d="M187.442,106.471c0,0.414-2.907,6.021-4.355,8.808c-0.479,0.925-0.806,1.535-0.806,1.535
					l-33.62-0.555c0,0-1.764-10.474,1.361-13.054c3.125-2.591,8.165-28.307,19.597-27.087c1.198,0.131,2.275,0.446,3.255,0.936
					c8.34,4.05,9.08,19.434,10.898,22.471C185.809,102.922,187.442,105.926,187.442,106.471z"/>
				<path style="opacity:0.2;fill:#384168;" d="M183.087,115.257v0.022c-0.479,0.925-0.806,1.535-0.806,1.535l-33.62-0.555
					c0,0-1.764-10.474,1.361-13.054c3.125-2.591,8.165-28.307,19.597-27.087c1.198,0.131,2.275,0.446,3.255,0.936l0.011,0.011
					c0,0-7.066-0.109-7.545,2.537c-0.479,2.635-2.657,15.699,1.415,18.563c4.094,2.863-13.326,12.52-13.326,12.52
					s21.611-1.089,27.882-6.38c-0.272,0.327-4.551,5.465-7.066,6.38C171.656,111.631,183.087,115.257,183.087,115.257z"/>
				<path style="fill:#909299;" d="M184.568,115.464l-0.686,8.1c-9.113-0.512-17.877-0.762-25.628-0.272
					c-4.41,0.272-8.503,0.795-12.15,1.644l0.272-8.078c2.373-0.893,5.063-1.524,7.871-1.949
					C167.867,112.84,184.568,115.464,184.568,115.464z"/>
				<path style="opacity:0.3;fill:#384168;" d="M158.253,123.291c-4.41,0.272-8.503,0.795-12.15,1.644l0.272-8.078
					c2.373-0.893,5.063-1.524,7.871-1.949C154.247,114.908,150.698,122.693,158.253,123.291z"/>
			</g>
			<path style="fill:#FFFFFF;" d="M121.254,251.505c0,0-60.647,45.885-14.004,55.352c31.427,6.378,121.231,11.066,291.776-47.144
				c0,0-74.355,49.82-142.419,61.344l54.137,2.904c0,0-171.053,45.484-243.528,8.67C40.345,318.982,51.296,277.852,121.254,251.505z
				"/>
		</g>
		<g>
			<g>
				<g>
					<rect x="106.394" y="374.401" style="fill:#AFAFB3;" width="286.842" height="74.686"/>
					<path style="fill:#323438;" d="M103.459,371.468v80.553h292.71v-80.553H103.459z M393.235,449.087H106.394v-74.686h286.842
						V449.087z"/>
				</g>
				<polygon style="fill:#E3E3E8;" points="106.304,374.311 113.216,380.961 386.409,380.961 393.359,374.311 				"/>
				<polygon style="fill:#909299;" points="106.183,449.104 113.215,442.529 386.414,442.529 393.357,449.104 				"/>
				<rect x="113.216" y="380.961" style="fill:#616161;" width="273.194" height="61.565"/>
				<path style="opacity:0.3;fill:#384168;" d="M113.211,380.959v61.569h273.205v-61.569H113.211z M382.362,438.239H117.266v-52.991
					h265.096V438.239z"/>
			</g>
			
				<text transform="matrix(1 0 0 1 131.438 432.0469)" style="fill:#FFFFFF; font-family:'Montserrat-BlackItalic'; font-size:57.5101px; letter-spacing:11;">NINJA</text>
			<g>
				<polygon style="fill:#AFAFB3;" points="139.07,408.948 146.645,408.471 145.793,412.731 142.506,429.221 135.015,429.221 				
					"/>
				<polygon style="fill:#AFAFB3;" points="173.455,406.785 168.969,429.221 161.675,429.221 150.943,411.804 148.799,408.34 
					157.376,407.797 159.961,411.992 163.716,418.078 165.111,411.065 165.87,407.263 				"/>
				<polygon style="fill:#AFAFB3;" points="197.548,405.278 205.48,404.772 200.592,429.221 192.754,429.221 				"/>
				<polygon style="fill:#AFAFB3;" points="261.355,414.117 258.34,429.221 251.045,429.221 242.168,414.819 250.876,414.501 
					253.817,414.389 				"/>
				<polygon style="fill:#AFAFB3;" points="246.784,407.871 239.855,411.065 236.559,405.727 235.164,412.731 235.051,413.275 
					230.809,415.232 234.695,415.091 231.877,429.221 224.386,429.221 229.573,403.264 243.413,402.393 				"/>
				<polygon style="fill:#AFAFB3;" points="261.083,401.279 255.961,403.639 256.373,401.579 				"/>
				<path style="fill:#AFAFB3;" d="M298.802,412.75l7.744-0.281l-0.815,4.064c-1.938,9.785-6.396,13.606-15.882,13.606
					c-4.691,0-8.212-1.068-10.694-3.24l4.579-4.336c1.863,1.714,3.961,2.556,6.349,2.556c3.896,0,6.733-2.5,7.585-6.695
					L298.802,412.75z"/>
				<polygon style="fill:#AFAFB3;" points="362.964,429.221 355.323,429.221 354.434,424.493 354.003,422.198 334.694,422.198 
					333.879,423.612 330.667,429.221 323.092,429.221 334.413,411.458 340.968,411.214 339.46,413.836 337.044,418.041 
					353.169,418.041 352.542,414.707 351.802,410.821 358.535,410.578 				"/>
			</g>
			<g>
				<g>
					<path style="fill:#323438;" d="M179.265,391.802l-8.053,40.256h-11.153l-11.555-18.747l-3.746,18.747h-13.222l8.053-40.256
						h11.153l11.565,18.747l3.736-18.747H179.265 M181.704,389.802h-2.44h-13.222h-1.641l-0.321,1.609l-2.742,13.76l-8.895-14.419
						l-0.586-0.95h-1.116h-11.153h-1.64l-0.322,1.608l-8.053,40.256l-0.479,2.392h2.44h13.222h1.64l0.321-1.608l2.75-13.761
						l8.888,14.419l0.586,0.951h1.117h11.153h1.64l0.322-1.608l8.053-40.256L181.704,389.802L181.704,389.802z"/>
				</g>
				<g>
					<path style="fill:#323438;" d="M210.896,391.802l-8.053,40.256h-13.568l8.053-40.256H210.896 M213.336,389.802h-2.44h-13.569
						h-1.639l-0.322,1.608l-8.053,40.256l-0.479,2.392h2.44h13.568h1.64l0.322-1.608l8.053-40.256L213.336,389.802L213.336,389.802z
						"/>
				</g>
				<g>
					<path style="fill:#323438;" d="M268.635,391.802l-8.053,40.256h-11.153l-11.565-18.747l-3.736,18.747h-13.222l8.044-40.256
						h11.162l11.555,18.747l3.746-18.747H268.635 M271.075,389.802h-2.44h-13.222h-1.64l-0.321,1.608l-2.749,13.761l-8.888-14.419
						l-0.586-0.951h-1.117H228.95h-1.64l-0.321,1.608l-8.044,40.256l-0.478,2.392h2.439h13.222h1.641l0.321-1.609l2.742-13.76
						l8.895,14.419l0.586,0.95h1.116h11.153h1.639l0.322-1.608l8.053-40.256L271.075,389.802L271.075,389.802z"/>
				</g>
				<g>
					<path style="fill:#323438;" d="M313.498,391.802l-5.066,25.302c-2.294,11.621-8.399,15.872-18.634,15.872
						c-6.789,0-11.611-2.069-14.608-6.208l8.69-8.222c1.779,2.528,3.736,3.792,6.152,3.792c2.584,0,4.251-1.611,4.832-4.429
						l3.156-15.872h-13.681l2.069-10.235H313.498 M315.938,389.802h-2.44h-27.09h-1.636l-0.324,1.604l-2.069,10.235l-0.484,2.396
						h2.445h11.244l-2.681,13.482c-0.581,2.819-2.244,2.819-2.87,2.819c-1.139,0-2.681-0.335-4.517-2.943l-1.331-1.891l-1.68,1.589
						l-8.69,8.222l-1.274,1.205l1.028,1.421c3.38,4.668,8.84,7.035,16.228,7.035c11.697,0,18.242-5.556,20.596-17.485l5.065-25.296
						L315.938,389.802L315.938,389.802z"/>
				</g>
				<g>
					<path style="fill:#323438;" d="M356.91,391.802l9.551,40.256h-13.512l-1.33-7.014h-15.348l-4.027,7.014h-14.327l25.658-40.256
						H356.91 M341.843,415.268h7.884l-1.957-10.3L341.843,415.268 M358.491,389.802h-1.581h-13.334h-1.097l-0.59,0.925
						l-25.658,40.256l-1.96,3.075h3.646h14.327h1.158l0.577-1.004l3.45-6.009h12.533l1.021,5.386l0.308,1.628h1.657h13.512h2.53
						l-0.584-2.462l-9.551-40.256L358.491,389.802L358.491,389.802z M345.302,413.268l1.511-2.626l0.499,2.626H345.302
						L345.302,413.268z"/>
				</g>
			</g>
		</g>
	</g>
</g>
</svg>
